<svg xmlns="http://www.w3.org/2000/svg" viewBox="0.150 -7.100 6.559 7.700" width="32" height="32">
  <rect x="0.150" y="-7.100" width="6.559" height="7.700" rx="1.5" fill="#011638"/>
  <path fill="white" d="M 2.671875 -6.5 C 3.390625 -6.5 4.003906 -6.367188 4.515625 -6.109375 C 5.035156 -5.847656 5.429688 -5.472656 5.703125 -4.984375 C 5.972656 -4.492188 6.109375 -3.910156 6.109375 -3.234375 C 6.109375 -2.566406 5.972656 -1.988281 5.703125 -1.5 C 5.429688 -1.007812 5.035156 -0.632812 4.515625 -0.375 C 4.003906 -0.125 3.390625 0 2.671875 0 L 0.75 0 L 0.75 -6.5 Z M 2.671875 -0.546875 C 3.578125 -0.546875 4.265625 -0.78125 4.734375 -1.25 C 5.210938 -1.726562 5.453125 -2.390625 5.453125 -3.234375 C 5.453125 -4.085938 5.210938 -4.753906 4.734375 -5.234375 C 4.265625 -5.710938 3.578125 -5.953125 2.671875 -5.953125 L 1.390625 -5.953125 L 1.390625 -0.546875 Z M 2.671875 -0.546875"/>
</svg>